<svg xmlns="http://www.w3.org/2000/svg" version="1.1" xmlns:xlink="http://www.w3.org/1999/xlink" xmlns:svgjs="http://svgjs.dev/svgjs" width="1440" height="560" preserveAspectRatio="none" viewBox="0 0 1440 560"><g mask="url(&quot;#SvgjsMask1009&quot;)" fill="none"><rect width="1440" height="560" x="0" y="0" fill="rgba(61, 0, 84, 1)"></rect><path d="M0,507.164C100.014,507.449,205.732,505.008,287.968,448.087C369.197,391.863,402.567,292.419,441.452,201.605C479.465,112.828,525.743,21.974,511.311,-73.515C496.918,-168.746,411.319,-231.339,363.392,-314.881C301.074,-423.508,301.052,-585.605,187.381,-638.162C76.114,-689.608,-48.983,-600.984,-164.067,-558.76C-271.795,-519.235,-384.558,-485.017,-461.661,-400.031C-539.665,-314.052,-596.517,-201.397,-593.573,-85.343C-590.773,25.025,-501.492,108.194,-446.34,203.836C-397,289.398,-368.605,390.933,-286.915,446.449C-204.391,502.531,-99.777,506.88,0,507.164" fill="#2d003d"></path><path d="M1440 1159.094C1550.125 1154.7089999999998 1619.77 1043.362 1709.62 979.537 1794.507 919.2370000000001 1897.246 882.156 1953.347 794.438 2013.702 700.069 2058.7039999999997 583.7139999999999 2032.4160000000002 474.823 2006.579 367.801 1894.19 311.90999999999997 1817.733 232.692 1746.034 158.40300000000002 1692.192 64.89600000000002 1597.366 24.059999999999945 1496.426-19.408999999999992 1378.559-38.54399999999998 1275.305-0.9009999999999536 1174.0230000000001 36.02200000000005 1128.201 147.649 1051.255 223.151 965.73 307.072 837.009 354.44399999999996 797.782 467.663 756.691 586.264 769.579 730.009 839.541 834.221 907.464 935.3969999999999 1049.039 943.5840000000001 1156.218 1001.573 1253.34 1054.12 1329.661 1163.488 1440 1159.094" fill="#4e006b"></path></g><defs><mask id="SvgjsMask1009"><rect width="1440" height="560" fill="#ffffff"></rect></mask></defs></svg>